<svg width="21" height="25" viewBox="0 0 21 25" fill="none" xmlns="http://www.w3.org/2000/svg">
<path d="M14 17.5813V21.949C14 22.8262 13.2725 23.5373 12.375 23.5373H2.625C1.72754 23.5373 1 22.8262 1 21.949V9.24303C1 8.36587 1.72754 7.65479 2.625 7.65479H7" stroke="white" stroke-width="1.5" stroke-linecap="round" stroke-linejoin="round"/>
<path d="M8.625 17.5813H18.375C19.2725 17.5813 20 16.8703 20 15.9931V5.66948C20 5.24824 19.8048 4.97468 19.5 4.67682L17.5 2.19518C17.1952 1.89732 16.9309 1.69885 16.5 1.69885H8.625C7.72754 1.69885 7 2.40994 7 3.2871V15.9931C7 16.8703 7.72754 17.5813 8.625 17.5813Z" stroke="white" stroke-width="1.5" stroke-linecap="round" stroke-linejoin="round"/>
<path d="M16.125 2.69153V2.06653H14.875V2.69153H16.125ZM15.5 6.16582H14.875V6.79082H15.5V6.16582ZM19.5 6.79082H20.125V5.54082H19.5V6.79082ZM14.875 2.69153V6.16582H16.125V2.69153H14.875ZM15.5 6.79082H19.5V5.54082H15.5V6.79082Z" fill="white"/>
</svg>
