<svg xmlns="http://www.w3.org/2000/svg"><symbol id="files-icon" viewBox="0 0 21 25"><path d="M14 17.581v4.368c0 .877-.727 1.588-1.625 1.588h-9.75c-.897 0-1.625-.71-1.625-1.588V9.243c0-.877.728-1.588 1.625-1.588H7" stroke-width="1.5" stroke-linecap="round" stroke-linejoin="round"/><path d="M8.625 17.581h9.75c.898 0 1.625-.71 1.625-1.588V5.67c0-.42-.195-.694-.5-.992l-2-2.482c-.305-.298-.57-.496-1-.496H8.625C7.728 1.699 7 2.409 7 3.287v12.706c0 .877.728 1.588 1.625 1.588Z" stroke-width="1.5" stroke-linecap="round" stroke-linejoin="round"/><path d="M16.125 2.692v-.625h-1.25v.625h1.25ZM15.5 6.166h-.625v.625h.625v-.625Zm4 .625h.625V5.54H19.5v1.25Zm-4.625-4.1v3.475h1.25V2.692h-1.25Zm.625 4.1h4V5.54h-4v1.25Z"/></symbol></svg>