<svg width="15" height="16" viewBox="0 0 15 16" fill="none" xmlns="http://www.w3.org/2000/svg">
<path d="M11.9597 6.75686C11.9353 6.31717 12.0577 5.90139 11.8617 5.55967C11.3728 4.7042 10.1513 4.21576 7.70719 4.21576V4.19092V4.21529C5.01891 4.21529 3.87047 4.7042 3.38204 5.5592C3.21597 5.93552 3.14066 6.34561 3.16219 6.75639C3.07197 7.13231 3.03085 7.51833 3.03985 7.90482C3.11297 8.44248 3.16219 8.98014 3.23532 9.46857C3.30844 9.88389 3.89532 10.2017 3.96844 10.5936C4.11516 11.6445 5.04375 12.1329 7.73157 12.1329V12.2553H7.68469V12.1329C10.1283 12.1329 11.1534 11.644 11.3016 10.5936C11.3484 10.2026 11.8392 9.88482 11.9109 9.46857C11.9841 8.97967 12.0089 8.44201 12.082 7.90482C12.0815 7.51894 12.0405 7.13418 11.9597 6.75686V6.75686Z" fill="#EFCCA3"/>
<path d="M7.58531 7.14783C7.9851 7.18437 8.35417 7.37767 8.61188 7.68548C8.95406 7.97892 9.5161 8.17439 9.76031 8.44298C10.0577 8.68952 10.2852 9.00969 10.4203 9.37158C10.5138 9.71422 10.5631 10.0674 10.567 10.4225C10.567 10.5449 10.6402 10.5205 10.8356 10.4225C11.2228 10.1862 11.5694 9.88912 11.8622 9.54267C11.7891 9.95798 11.2758 10.3245 11.227 10.7145C11.0803 11.7655 10.0552 12.2783 7.53703 12.2783H7.68375" fill="#CCAC8D"/>
<path d="M9.14953 6.31728C9.2475 6.6351 9.56484 7.73478 8.92969 7.36822C9.16138 7.55025 9.3179 7.81123 9.36938 8.10135C9.40007 8.25691 9.47326 8.40093 9.58082 8.51743C9.68839 8.63393 9.82612 8.71836 9.97875 8.76135C10.4008 8.82392 10.8306 8.71858 11.1759 8.46791C11.3786 8.27371 11.5175 8.02253 11.5742 7.74765C11.631 7.47276 11.6029 7.18712 11.4938 6.92853C11.4194 6.71799 11.2848 6.53394 11.1067 6.39926C10.9286 6.26458 10.7149 6.18522 10.492 6.17103C10.0313 6.04822 9.05156 5.95072 9.14953 6.31728Z" fill="#CCAC8D"/>
<path d="M10.3959 8.39425C10.8953 8.39425 11.3002 7.98942 11.3002 7.49003C11.3002 6.99065 10.8953 6.58582 10.3959 6.58582C9.89655 6.58582 9.49171 6.99065 9.49171 7.49003C9.49171 7.98942 9.89655 8.39425 10.3959 8.39425Z" fill="black"/>
<path d="M10.1512 7.319C10.2861 7.319 10.3955 7.20966 10.3955 7.07479C10.3955 6.93991 10.2861 6.83057 10.1512 6.83057C10.0164 6.83057 9.90703 6.93991 9.90703 7.07479C9.90703 7.20966 10.0164 7.319 10.1512 7.319Z" fill="white"/>
<path d="M9.00281 7.44128C9.46257 7.76384 9.88835 8.1323 10.2736 8.54097C10.7133 9.10347 10.7133 9.20097 10.7133 9.20097L10.3955 9.34769C10.1579 8.88405 9.81477 8.48265 9.39375 8.17582C8.83125 7.858 8.75859 7.58941 8.75859 7.58941L9.00281 7.44128Z" fill="#EFCCA3"/>
<path d="M7.61016 7.14783C7.18928 7.18332 6.79696 7.37513 6.51047 7.68548C6.16828 7.97892 5.5575 8.17439 5.33859 8.44298C5.03374 8.68787 4.79789 9.0079 4.65422 9.37158C4.56078 9.71422 4.51147 10.0674 4.5075 10.4225C4.5075 10.5449 4.53187 10.5692 4.21406 10.4225C3.82122 10.1941 3.47334 9.89593 3.1875 9.54267C3.26063 9.95798 3.77391 10.3245 3.82266 10.7145C3.96937 11.7411 4.99453 12.2539 7.51266 12.2539H7.68375" fill="#CCAC8D"/>
<path d="M9.95578 8.83397C9.67541 8.46201 9.31409 8.15869 8.89919 7.94697C8.48428 7.73526 8.02666 7.62069 7.56094 7.61194V7.61194C7.09579 7.62361 6.63918 7.73945 6.22472 7.95094C5.81026 8.16243 5.44851 8.46418 5.1661 8.83397C4.97799 9.02983 4.83638 9.26552 4.75174 9.52356C4.66711 9.78159 4.64163 10.0554 4.67719 10.3246C4.67719 12.4996 5.43469 11.8396 5.94797 12.1087C6.45914 12.2792 7.0028 12.3294 7.53656 12.2554V12.2554C8.0703 12.3306 8.61422 12.2803 9.12516 12.1087C9.63844 11.8401 10.3959 12.4996 10.3959 10.3246C10.4565 10.0592 10.4479 9.78276 10.3708 9.52172C10.2937 9.26068 10.1508 9.02384 9.95578 8.83397V8.83397Z" fill="#56332B"/>
<path d="M7.51219 8.22314C7.49376 8.63036 7.4198 9.03314 7.29234 9.42033L7.56094 9.34721L7.51219 8.22314Z" fill="#442823"/>
<path d="M7.58531 8.22314C7.60374 8.63036 7.6777 9.03314 7.80515 9.42033L7.53656 9.34721L7.58531 8.22314Z" fill="#442823"/>
<path d="M6.73032 7.97891C6.63235 7.73469 6.99891 7.34375 7.58579 7.34375C8.17266 7.34375 8.53876 7.73469 8.44126 7.97891C8.34376 8.22313 7.95235 8.29672 7.58579 8.29672C7.19438 8.29625 6.82782 8.22313 6.73032 7.97891Z" fill="#56332B"/>
<path d="M7.58531 8.22316C7.58531 8.17629 7.9275 8.17629 8.12297 8.05207C8.12297 8.05207 7.73203 8.17441 7.65844 8.1252C7.60789 8.08046 7.57346 8.02034 7.56047 7.9541C7.54748 8.02034 7.51305 8.08046 7.4625 8.1252C7.38938 8.17207 6.94922 8.05207 6.94922 8.05207C7.14088 8.0944 7.32895 8.1516 7.51172 8.22316V8.41863C7.49642 8.73706 7.51212 9.05622 7.55859 9.3716C7.63172 9.46957 7.60547 8.68723 7.60547 8.41863C7.58822 8.355 7.58141 8.28898 7.58531 8.22316Z" fill="black"/>
<path d="M7.58531 9.61588C7.86154 9.65273 8.12298 9.76242 8.34281 9.93369C8.15169 9.686 7.8862 9.50611 7.58531 9.42041C7.24025 9.49529 6.93534 9.69578 6.72984 9.98291C6.97074 9.77594 7.26933 9.64784 7.58531 9.61588V9.61588Z" fill="#7F4A41"/>
<path d="M7.53656 11.4229C7.15323 11.4017 6.77466 11.3278 6.41156 11.2031C6.33844 11.1787 6.26485 11.2274 6.19172 11.2031C5.60116 11.0357 5.07913 10.6849 4.7011 10.2013V10.2993C4.7011 12.4743 5.4586 11.8143 5.97188 12.0834C6.48305 12.2539 7.02671 12.3041 7.56047 12.2301V12.2301C8.09421 12.3053 8.63812 12.255 9.14906 12.0834C9.66235 11.8148 10.4198 12.4743 10.4198 10.2993V10.0795C10.0581 10.6107 9.52311 10.9998 8.90625 11.1801C8.83313 11.2045 8.71078 11.1557 8.63766 11.1557C8.28876 11.3076 7.91625 11.3979 7.53656 11.4229V11.4229Z" fill="#442823"/>
<path d="M6.53484 10.251C6.53484 10.251 6.26625 11.0329 6.46172 11.376L6.2175 11.278C6.29766 10.9283 6.40374 10.585 6.53484 10.251V10.251Z" fill="#442823"/>
<path d="M8.58749 10.251C8.58749 10.251 8.85609 11.0329 8.66062 11.376L8.90624 11.278C8.83736 10.9252 8.73049 10.5808 8.58749 10.251V10.251Z" fill="#442823"/>
<path d="M5.89922 6.31726C5.80125 6.63507 5.48391 7.73476 6.11906 7.36819C5.88737 7.55022 5.73085 7.81121 5.67938 8.10132C5.64868 8.25688 5.57549 8.40091 5.46793 8.51741C5.36036 8.63391 5.22263 8.71833 5.07 8.76132C4.64755 8.82494 4.21701 8.72025 3.87094 8.46976C3.66828 8.27555 3.52939 8.02438 3.47263 7.74949C3.41588 7.47461 3.44395 7.18896 3.55313 6.93038C3.62747 6.71983 3.76206 6.53578 3.94016 6.4011C4.11826 6.26643 4.33201 6.18706 4.55485 6.17288C5.01985 6.04819 5.99719 5.95069 5.89922 6.31726Z" fill="#CCAC8D"/>
<path d="M7.56094 9.42037C7.86384 9.50564 8.13464 9.67885 8.33907 9.91807C8.5435 10.1573 8.67237 10.4518 8.70938 10.7643V10.7174C8.70168 10.3928 8.58378 10.0806 8.37507 9.8319C8.16635 9.58324 7.87925 9.41298 7.56094 9.34912C7.24064 9.40884 6.95102 9.57792 6.74156 9.82749C6.53209 10.077 6.41578 10.3916 6.41251 10.7174V10.7643C6.45359 10.4532 6.58393 10.1608 6.78774 9.92228C6.99156 9.68378 7.26012 9.50944 7.56094 9.42037Z" fill="black"/>
<path d="M7.79252 7.97328C7.83163 7.9632 7.84692 7.89141 7.82669 7.81295C7.80646 7.73449 7.75835 7.67905 7.71925 7.68914C7.68014 7.69922 7.66484 7.771 7.68507 7.84947C7.70531 7.92793 7.75341 7.98336 7.79252 7.97328Z" fill="#331712"/>
<path d="M7.38643 7.85694C7.41044 7.77954 7.39863 7.70711 7.36006 7.69514C7.32149 7.68317 7.27076 7.73621 7.24675 7.8136C7.22274 7.891 7.23455 7.96344 7.27312 7.9754C7.31169 7.98737 7.36242 7.93433 7.38643 7.85694Z" fill="#331712"/>
<path d="M4.70202 8.39425C5.20141 8.39425 5.60624 7.98942 5.60624 7.49003C5.60624 6.99065 5.20141 6.58582 4.70202 6.58582C4.20264 6.58582 3.79781 6.99065 3.79781 7.49003C3.79781 7.98942 4.20264 8.39425 4.70202 8.39425Z" fill="black"/>
<path d="M4.94625 7.319C5.08112 7.319 5.19046 7.20966 5.19046 7.07479C5.19046 6.93991 5.08112 6.83057 4.94625 6.83057C4.81137 6.83057 4.70203 6.93991 4.70203 7.07479C4.70203 7.20966 4.81137 7.319 4.94625 7.319Z" fill="white"/>
<path d="M7.82813 7.48999C7.82813 7.48999 7.58391 7.58796 7.53469 7.61233C7.43176 7.58512 7.33304 7.54395 7.24126 7.48999H7.82813Z" fill="#7F4A41"/>
<path d="M6.04688 7.44128C5.58712 7.76384 5.16134 8.1323 4.7761 8.54097C4.33641 9.10347 4.33641 9.20097 4.33641 9.20097L4.65422 9.34769C4.89181 8.88405 5.23492 8.48265 5.65594 8.17582C6.21844 7.858 6.2911 7.58941 6.2911 7.58941L6.04688 7.44128Z" fill="#EFCCA3"/>
<path d="M4.26187 5.80396C4.09157 6.25482 3.77261 6.63413 3.35765 6.87927C3.61682 6.84855 3.85456 6.72028 4.02253 6.52053C4.1905 6.32078 4.27608 6.06455 4.26187 5.80396V5.80396Z" fill="#CCAC8D"/>
<path d="M10.7381 5.80396C10.9084 6.25482 11.2274 6.63413 11.6423 6.87927C11.3832 6.84855 11.1454 6.72028 10.9775 6.52053C10.8095 6.32078 10.7239 6.06455 10.7381 5.80396Z" fill="#CCAC8D"/>
<path d="M9.05157 7.22092C8.65877 6.84515 8.15083 6.61264 7.60969 6.56092H7.68282C7.41219 6.55766 7.14428 6.61528 6.89892 6.72953C6.65356 6.84377 6.43702 7.01171 6.26532 7.22092C6.66861 6.90174 7.16852 6.72932 7.68282 6.73202V6.73202C8.17506 6.7674 8.64831 6.93644 9.05157 7.22092V7.22092Z" fill="#CCAC8D"/>
<path d="M8.31844 5.87707C8.13959 5.6418 7.87708 5.48437 7.58532 5.43738H7.65844C7.51218 5.44233 7.36977 5.48553 7.24541 5.56268C7.12106 5.63982 7.01909 5.74822 6.94969 5.87707C7.13511 5.68226 7.38965 5.56812 7.65844 5.55925V5.55925C7.78473 5.56222 7.90893 5.59211 8.02275 5.64692C8.13656 5.70172 8.23737 5.78019 8.31844 5.87707V5.87707Z" fill="#CCAC8D"/>
<path d="M4.70203 9.05377C4.44592 9.18571 4.15071 9.22051 3.87094 9.15174H3.77344C3.57995 8.95238 3.43747 8.70924 3.35812 8.44299C3.45963 8.69886 3.65634 8.90543 3.90694 9.01933C4.15754 9.13322 4.44252 9.14557 4.70203 9.05377Z" fill="#CCAC8D"/>
<path d="M10.3716 9.05377C10.6277 9.18571 10.9229 9.22051 11.2027 9.15174H11.1047C11.2485 9.09415 11.373 8.99701 11.4638 8.87158C11.5546 8.74615 11.6081 8.59755 11.618 8.44299C11.5804 8.56774 11.5175 8.68339 11.4332 8.78272C11.3489 8.88204 11.245 8.9629 11.128 9.02023C11.011 9.07756 10.8834 9.11013 10.7533 9.1159C10.6231 9.12167 10.4932 9.10052 10.3716 9.05377V9.05377Z" fill="#CCAC8D"/>
<path d="M5.26407 5.75519C5.6131 5.68664 5.97347 5.70272 6.31501 5.80206C6.75469 5.94878 6.41298 6.53519 6.4861 6.55956C6.62697 6.43123 6.79354 6.33434 6.97474 6.27534C7.15593 6.21635 7.34761 6.19658 7.53704 6.21737C8.36813 6.26425 8.46563 6.63269 8.58797 6.55956C8.71032 6.51269 8.46563 5.533 9.73641 5.75331C9.73641 5.75331 8.44126 5.41112 8.49001 6.33972C8.22256 6.16499 7.91179 6.06807 7.59244 6.05979C7.27308 6.05151 6.95771 6.1322 6.68157 6.29284C6.68157 6.29284 6.95016 5.38862 5.26407 5.75519Z" fill="#CCAC8D"/>
<path d="M4.92187 4.48535C4.92187 4.48535 3.79687 5.87848 3.65109 6.41566C3.48 6.95332 3.35765 9.20145 3.2114 9.51926L2.69812 7.31895L3.65109 5.02207L4.92187 4.48535Z" fill="#CCAC8D"/>
<path d="M10.1512 4.48535C10.1512 4.48535 11.2762 5.87848 11.422 6.41566C11.5931 6.95332 11.7155 9.20145 11.8617 9.51926L12.375 7.31895L11.422 5.02207L10.1512 4.48535Z" fill="#CCAC8D"/>
<path d="M10.0781 4.48533C10.7602 5.06481 11.2889 5.80347 11.6175 6.63595C11.9597 7.78439 11.813 9.20189 12.082 9.37298C12.473 9.6172 12.8883 8.15095 13.035 8.0047C13.2548 7.76048 14.0123 7.12486 14.0616 7.00298C14.1108 6.88111 12.5466 5.17017 11.8378 4.82798C11.0555 4.43517 10.0312 4.38642 10.0781 4.48533Z" fill="#56332B"/>
<path d="M11.1047 5.09473C11.9699 6.27425 12.4558 7.68907 12.4978 9.15129L13.0603 8.00285C12.6386 6.89711 11.9697 5.9024 11.1047 5.09473V5.09473Z" fill="#442823"/>
<path d="M4.92187 4.48533C4.23981 5.06481 3.71109 5.80347 3.3825 6.63595C3.04031 7.78439 3.18703 9.20189 2.91797 9.37298C2.52703 9.6172 2.11172 8.15095 1.965 8.0047C1.74516 7.76048 0.987655 7.12486 0.938437 7.00298C0.889218 6.88111 2.45344 5.17017 3.16219 4.82798C3.94453 4.43517 4.96875 4.38642 4.92187 4.48533Z" fill="#56332B"/>
<path d="M3.89532 5.09473C3.03012 6.27425 2.54423 7.68907 2.50219 9.15129L1.94063 8.00098C2.36234 6.896 3.03091 5.90196 3.89532 5.09473V5.09473Z" fill="#442823"/>
<path d="M3.11343 9.17607C3.15209 9.43619 3.24349 9.68567 3.38203 9.9092C3.55312 10.0803 3.4289 9.76248 3.4289 9.76248C3.4289 9.76248 3.25781 9.66451 3.28218 8.95623C3.30656 8.24795 3.11343 9.17607 3.11343 9.17607Z" fill="#CCAC8D"/>
<path d="M11.9109 9.17608C11.8723 9.4362 11.7809 9.68568 11.6423 9.9092C11.4713 10.0803 11.5955 9.76249 11.5955 9.76249C11.5955 9.76249 11.7666 9.66452 11.7422 8.95624C11.7155 8.27186 11.9109 9.17608 11.9109 9.17608Z" fill="#CCAC8D"/>
<path d="M6.51047 8.83399C6.55086 8.83399 6.5836 8.80126 6.5836 8.76087C6.5836 8.72048 6.55086 8.68774 6.51047 8.68774C6.47009 8.68774 6.43735 8.72048 6.43735 8.76087C6.43735 8.80126 6.47009 8.83399 6.51047 8.83399Z" fill="#442823"/>
<path d="M6.02157 9.34718C6.06195 9.34718 6.09469 9.31444 6.09469 9.27405C6.09469 9.23367 6.06195 9.20093 6.02157 9.20093C5.98118 9.20093 5.94844 9.23367 5.94844 9.27405C5.94844 9.31444 5.98118 9.34718 6.02157 9.34718Z" fill="#442823"/>
<path d="M5.87484 8.83399C5.91522 8.83399 5.94796 8.80126 5.94796 8.76087C5.94796 8.72048 5.91522 8.68774 5.87484 8.68774C5.83445 8.68774 5.80171 8.72048 5.80171 8.76087C5.80171 8.80126 5.83445 8.83399 5.87484 8.83399Z" fill="#442823"/>
<path d="M8.51438 8.83399C8.55476 8.83399 8.5875 8.80126 8.5875 8.76087C8.5875 8.72048 8.55476 8.68774 8.51438 8.68774C8.47399 8.68774 8.44125 8.72048 8.44125 8.76087C8.44125 8.80126 8.47399 8.83399 8.51438 8.83399Z" fill="#442823"/>
<path d="M8.97844 9.34718C9.01883 9.34718 9.05157 9.31444 9.05157 9.27405C9.05157 9.23367 9.01883 9.20093 8.97844 9.20093C8.93806 9.20093 8.90532 9.23367 8.90532 9.27405C8.90532 9.31444 8.93806 9.34718 8.97844 9.34718Z" fill="#442823"/>
<path d="M9.12516 8.83399C9.16554 8.83399 9.19828 8.80126 9.19828 8.76087C9.19828 8.72048 9.16554 8.68774 9.12516 8.68774C9.08477 8.68774 9.05203 8.72048 9.05203 8.76087C9.05203 8.80126 9.08477 8.83399 9.12516 8.83399Z" fill="#442823"/>
</svg>
